# xmcd
#
# Track frame offsets:
#	150
#	19465
#	41078
#	59227
#	75580
#	93943
#	107851
#
# Disc length: 1666 seconds
#
# Revision: 0
# Processed by: cddbd v1.5.1PL0 Copyright (c) Steve Scherf et al.
# Submitted via: dBpowerAMP V4.0
#
DISCID=5c068007
DTITLE=Borrowed Angels - Lazy Excuse
DYEAR=2004
DGENRE=Bluegrass
TTITLE0=Blackwater
TTITLE1=Kudzu
TTITLE2=Glitter
TTITLE3=Athens
TTITLE4=Daughter
TTITLE5=Something's Wrong With My Brother
TTITLE6=Hungry Boys
EXTD=The Borrowed Angels are made up of Cary Anne Hearst, Danny Cassady, and a few members of Jump, Little Children.
EXTT0=
EXTT1=
EXTT2=
EXTT3=
EXTT4=
EXTT5=
EXTT6=
PLAYORDER=
